# xmcd
#
# Track frame offsets:
#	150
#	10340
#	22994
#	38433
#	53945
#	67164
#	82366
#	92166
#	103459
#	117085
#	128651
#	142329
#
# Disc length: 2131 seconds
#
# Revision: 1
# Processed by: cddbd v1.5.2PL0 Copyright (c) Steve Scherf et al.
# Submitted via: audiograbber 1.83.01
#
DISCID=ac08510c
DTITLE=Dale Watson - Under the Influence
DYEAR=2016
DGENRE=Country
TTITLE0=Lonely Blue Boy
TTITLE1=You're Humbuggin' Me
TTITLE2=Lucille
TTITLE3=Made in Japan
TTITLE4=That's What I Like About the South
TTITLE5=Here in Frisco
TTITLE6=Pretty Red Wine
TTITLE7=Pure Love
TTITLE8=I Don't Wanna Go Home
TTITLE9=Most Wanted Woman
TTITLE10=If You Want to Be My Woman
TTITLE11=Long Black Veil
EXTD=
EXTT0=
EXTT1=
EXTT2=
EXTT3=
EXTT4=
EXTT5=
EXTT6=
EXTT7=
EXTT8=
EXTT9=
EXTT10=
EXTT11=
PLAYORDER=
